<svg width="35" height="35" viewBox="0 0 35 35" fill="none" xmlns="http://www.w3.org/2000/svg">
<path d="M21.1562 9.07312L13.0617 24.9898L14.0237 25.4789L22.1179 9.56225L21.1562 9.07312ZM15.8813 13.3633C15.8813 11.5785 14.4291 10.1261 12.644 10.1261C10.8591 10.1261 9.4066 11.5782 9.4066 13.3633C9.4066 15.1482 10.8591 16.6006 12.644 16.6006C14.4291 16.6006 15.8813 15.1485 15.8813 13.3633ZM12.644 15.5215C11.4539 15.5215 10.4857 14.5533 10.4857 13.3633C10.4857 12.1733 11.4539 11.2051 12.644 11.2051C13.834 11.2051 14.8022 12.1733 14.8022 13.3633C14.8022 14.5533 13.834 15.5215 12.644 15.5215ZM22.3563 18.7588C20.5711 18.7588 19.1187 20.211 19.1187 21.9961C19.1187 23.7812 20.5711 25.2334 22.3563 25.2334C24.1415 25.2334 25.5934 23.7812 25.5934 21.9961C25.5934 20.211 24.1415 18.7588 22.3563 18.7588ZM22.3563 24.1543C21.1663 24.1543 20.1981 23.1861 20.1981 21.9961C20.1981 20.8061 21.1663 19.8379 22.3563 19.8379C23.5463 19.8379 24.5146 20.8061 24.5146 21.9961C24.5146 23.1861 23.5463 24.1543 22.3563 24.1543ZM33.7661 20.1014C34.3727 19.3125 35 18.4978 35 17.4999C35 16.502 34.373 15.6869 33.7661 14.8986C33.3579 14.368 32.972 13.8666 32.8439 13.3884C32.7077 12.878 32.7922 12.2314 32.8813 11.5463C33.0072 10.5781 33.1377 9.57724 32.6578 8.74775C32.1698 7.90519 31.2299 7.51633 30.3203 7.14056C29.6897 6.88005 29.0935 6.63371 28.7305 6.27047C28.3675 5.90723 28.1212 5.31127 27.8604 4.68044C27.484 3.77111 27.0954 2.83044 26.2526 2.34294C25.8572 2.11404 25.3778 2.00287 24.7873 2.00287C24.3483 2.00287 23.8938 2.06227 23.4545 2.11922C23.0267 2.17481 22.6231 2.2274 22.2473 2.2274C21.9993 2.2274 21.7917 2.20397 21.6124 2.15601C21.1333 2.02821 20.6319 1.64235 20.1013 1.23387C19.3132 0.627292 18.4982 0 17.5003 0C16.5021 0 15.687 0.627019 14.8987 1.23387C14.3681 1.64235 13.8667 2.02821 13.3884 2.15601C13.2089 2.20424 13.0015 2.2274 12.7535 2.2274C12.3777 2.2274 11.9739 2.17508 11.5463 2.11922C11.1068 2.062 10.6522 2.00287 10.2132 2.00287C9.6227 2.00287 9.14336 2.11404 8.74796 2.34267C7.9051 2.83017 7.51651 3.77084 7.14045 4.68016C6.87993 5.31073 6.63359 5.90668 6.27034 6.26992C5.90709 6.63316 5.31112 6.8795 4.68027 7.14028C3.77065 7.51606 2.83024 7.90491 2.34273 8.74775C1.86284 9.57724 1.9931 10.5781 2.119 11.546C2.20838 12.2308 2.29231 12.8777 2.15606 13.3881C2.02825 13.8664 1.64239 14.3678 1.2339 14.8986C0.627306 15.6867 0 16.502 0 17.4999C0 18.4978 0.627306 19.3125 1.2339 20.1011C1.64239 20.6314 2.02825 21.1331 2.15606 21.6119C2.29231 22.1217 2.20838 22.7689 2.119 23.4537C1.9931 24.4216 1.86284 25.4228 2.34273 26.252C2.83024 27.0945 3.77065 27.4837 4.68 27.8592C5.31085 28.12 5.90709 28.3663 6.27034 28.7298C6.63359 29.0928 6.87966 29.689 7.14045 30.3196C7.51623 31.2292 7.90482 32.1693 8.74768 32.6571C9.14309 32.886 9.62242 32.9971 10.2129 32.9971C10.6522 32.9971 11.1065 32.9375 11.546 32.8805C11.9739 32.8246 12.378 32.7723 12.7535 32.7723C13.0015 32.7723 13.2089 32.7958 13.3884 32.8434C13.8667 32.9718 14.3678 33.3577 14.8987 33.7659C15.687 34.3727 16.5021 35 17.5003 35C18.4985 35 19.3132 34.3724 20.1013 33.7659C20.6319 33.3577 21.1333 32.9718 21.6118 32.844C21.7911 32.7958 21.9993 32.7726 22.2473 32.7726C22.6225 32.7726 23.0264 32.8246 23.454 32.8805C23.8935 32.938 24.3481 32.9971 24.7868 32.9971C25.3776 32.9971 25.8572 32.886 26.252 32.6571C27.0952 32.1696 27.4838 31.2292 27.8598 30.3196C28.1206 29.689 28.367 29.0928 28.7299 28.7298C29.0935 28.3668 29.6894 28.1205 30.3203 27.8597C31.2299 27.4839 32.1698 27.0951 32.6578 26.2528C33.1374 25.4233 33.0069 24.4221 32.881 23.454C32.7922 22.7689 32.7071 22.1217 32.8434 21.6113C32.972 21.1331 33.3576 20.632 33.7661 20.1014ZM31.8022 21.3331C31.6109 22.0495 31.713 22.8346 31.8114 23.5935C31.9193 24.4192 32.0207 25.1993 31.7245 25.7119C31.4204 26.2375 30.6857 26.5408 29.9088 26.8624C29.2079 27.152 28.483 27.4515 27.9677 27.9671C27.4522 28.4826 27.1529 29.2072 26.8627 29.9078C26.5412 30.685 26.2379 31.4196 25.7119 31.7232C25.4819 31.8562 25.1882 31.9183 24.7865 31.9183C24.4175 31.9183 24.0178 31.866 23.5932 31.8109C23.1504 31.7529 22.6929 31.6935 22.2476 31.6935C21.9042 31.6935 21.605 31.7289 21.3336 31.8014C20.6463 31.9851 20.0346 32.4557 19.4432 32.9108C18.768 33.4301 18.1308 33.9206 17.5003 33.9206C16.8694 33.9206 16.2318 33.4301 15.5568 32.9108C14.9654 32.4554 14.3537 31.9851 13.6669 31.8014C13.3953 31.7284 13.0966 31.6935 12.7532 31.6935C12.3074 31.6935 11.8493 31.7532 11.4062 31.8107C10.9822 31.8663 10.5816 31.9183 10.2127 31.9183C9.81127 31.9183 9.51751 31.8565 9.28779 31.7235C8.76185 31.4194 8.45856 30.6853 8.13727 29.9081C7.8476 29.2075 7.54812 28.4829 7.03281 27.9671C6.51723 27.4518 5.79264 27.1523 5.09176 26.8621C4.31457 26.5411 3.58044 26.2378 3.27606 25.7116C2.97957 25.199 3.08094 24.4189 3.18858 23.5932C3.28777 22.8348 3.38969 22.0503 3.19812 21.3334C3.01445 20.6459 2.54383 20.0344 2.08875 19.4431C1.56908 18.7681 1.07857 18.1307 1.07857 17.4999C1.07857 16.869 1.56936 16.2317 2.08875 15.5567C2.54383 14.9651 3.01445 14.3536 3.19812 13.6666C3.38969 12.95 3.28777 12.1652 3.18885 11.4065C3.08121 10.5806 2.97984 9.80069 3.27633 9.28785C3.58072 8.7622 4.31484 8.45863 5.09203 8.13735C5.79264 7.84769 6.5175 7.54821 7.03281 7.03265C7.54812 6.51735 7.8476 5.79278 8.13727 5.09191C8.45856 4.31474 8.76185 3.58036 9.28779 3.27625C9.51778 3.14327 9.81154 3.08141 10.2129 3.08141C10.5822 3.08141 10.9825 3.13346 11.4065 3.18878C11.8493 3.24655 12.3074 3.30623 12.753 3.30623C13.0963 3.30623 13.395 3.27107 13.6667 3.19832C14.3537 3.01465 14.9652 2.54405 15.5565 2.08897C16.2318 1.56959 16.8694 1.07882 17.5 1.07882C18.1308 1.07882 18.7682 1.56959 19.4432 2.08897C20.0346 2.54405 20.6466 3.01465 21.3336 3.19832C21.6056 3.27107 21.9045 3.30623 22.2476 3.30623C22.6926 3.30623 23.1509 3.24655 23.5938 3.18905C24.0178 3.13373 24.4178 3.08169 24.7871 3.08169C25.1887 3.08169 25.4825 3.14354 25.7119 3.27652C26.2381 3.58091 26.5417 4.31502 26.8633 5.09246C27.1529 5.79332 27.4524 6.5179 27.9677 7.03319C28.4836 7.54849 29.2079 7.84796 29.9088 8.13763C30.686 8.4589 31.4198 8.76247 31.7242 9.28812C32.0207 9.80069 31.9196 10.5809 31.812 11.4068C31.713 12.1657 31.6109 12.9505 31.8024 13.6669C31.9861 14.3539 32.4564 14.9654 32.9115 15.5567C33.4309 16.2317 33.9217 16.869 33.9217 17.4999C33.9217 18.1304 33.4309 18.7681 32.9115 19.4433C32.4564 20.0344 31.9861 20.6461 31.8022 21.3331Z" fill="white"/>
</svg>
