<svg width="174" height="64" viewBox="0 0 174 64" fill="none" xmlns="http://www.w3.org/2000/svg">
<g filter="url(#filter0_d)">
<rect x="1" y="1" width="168" height="58" fill="#F26422"/>
</g>
<rect x="6" y="6" width="158" height="48" rx="3" stroke="white" stroke-linecap="round" stroke-linejoin="round" stroke-dasharray="3 3"/>
<path d="M78.2913 22.51H87.6573C88.2453 22.51 88.7003 22.657 89.0223 22.951C89.3443 23.231 89.5053 23.637 89.5053 24.169C89.5053 24.673 89.3373 25.086 89.0013 25.408C88.6793 25.716 88.2313 25.87 87.6573 25.87H84.8643V35.089C84.8643 35.649 84.6963 36.111 84.3603 36.475C84.0383 36.825 83.5763 37 82.9743 37C82.3723 37 81.9033 36.825 81.5673 36.475C81.2453 36.111 81.0843 35.649 81.0843 35.089V25.87H78.2913C77.7173 25.87 77.2623 25.716 76.9263 25.408C76.6043 25.086 76.4433 24.673 76.4433 24.169C76.4433 23.637 76.6043 23.231 76.9263 22.951C77.2483 22.657 77.7033 22.51 78.2913 22.51ZM90.6467 35.089V24.421C90.6467 23.861 90.8077 23.406 91.1297 23.056C91.4657 22.692 91.9347 22.51 92.5367 22.51H99.2147C99.7887 22.51 100.237 22.657 100.559 22.951C100.895 23.245 101.063 23.658 101.063 24.19C101.063 24.694 100.895 25.1 100.559 25.408C100.237 25.716 99.7887 25.87 99.2147 25.87H94.4267V27.97H98.1437C98.7177 27.97 99.1657 28.117 99.4877 28.411C99.8237 28.705 99.9917 29.118 99.9917 29.65C99.9917 30.154 99.8237 30.56 99.4877 30.868C99.1657 31.176 98.7177 31.33 98.1437 31.33H94.4267V33.64H99.4037C99.9777 33.64 100.426 33.787 100.748 34.081C101.084 34.375 101.252 34.788 101.252 35.32C101.252 35.824 101.084 36.23 100.748 36.538C100.426 36.846 99.9777 37 99.4037 37H92.5367C91.9347 37 91.4657 36.825 91.1297 36.475C90.8077 36.111 90.6467 35.649 90.6467 35.089ZM102.892 35.089V24.421C102.892 23.861 103.053 23.406 103.375 23.056C103.711 22.692 104.18 22.51 104.782 22.51C105.384 22.51 105.846 22.692 106.168 23.056C106.504 23.406 106.672 23.861 106.672 24.421V28.915L110.62 23.581C111.026 23.021 111.481 22.685 111.985 22.573C112.489 22.461 112.979 22.587 113.455 22.951C113.861 23.301 114.057 23.735 114.043 24.253C114.029 24.757 113.826 25.254 113.434 25.744L110.368 29.503L113.938 33.64C114.358 34.116 114.568 34.62 114.568 35.152C114.582 35.67 114.372 36.125 113.938 36.517C113.434 36.923 112.937 37.077 112.447 36.979C111.957 36.881 111.502 36.573 111.082 36.055L106.672 30.574V35.089C106.672 35.649 106.504 36.111 106.168 36.475C105.846 36.825 105.384 37 104.782 37C104.18 37 103.711 36.825 103.375 36.475C103.053 36.111 102.892 35.649 102.892 35.089ZM122.069 25.66C121.173 25.66 120.466 26.024 119.948 26.752C119.444 27.48 119.192 28.495 119.192 29.797C119.192 31.113 119.472 32.121 120.032 32.821C120.606 33.507 121.32 33.85 122.174 33.85C122.468 33.85 122.769 33.808 123.077 33.724C123.385 33.64 123.616 33.563 123.77 33.493C123.938 33.409 124.211 33.269 124.589 33.073C125.555 32.583 126.29 32.653 126.794 33.283C127.074 33.605 127.151 34.032 127.025 34.564C126.913 35.096 126.598 35.565 126.08 35.971C125.03 36.797 123.616 37.21 121.838 37.21C119.668 37.21 118.016 36.559 116.882 35.257C115.762 33.955 115.202 32.128 115.202 29.776C115.202 27.494 115.818 25.681 117.05 24.337C118.282 22.979 119.927 22.3 121.985 22.3C123.721 22.3 125.051 22.657 125.975 23.371C126.367 23.679 126.598 24.043 126.668 24.463C126.752 24.883 126.71 25.219 126.542 25.471C126.164 26.241 125.45 26.451 124.4 26.101C123.518 25.807 122.741 25.66 122.069 25.66ZM129.335 22.51H138.701C139.289 22.51 139.744 22.657 140.066 22.951C140.388 23.231 140.549 23.637 140.549 24.169C140.549 24.673 140.381 25.086 140.045 25.408C139.723 25.716 139.275 25.87 138.701 25.87H135.908V35.089C135.908 35.649 135.74 36.111 135.404 36.475C135.082 36.825 134.62 37 134.018 37C133.416 37 132.947 36.825 132.611 36.475C132.289 36.111 132.128 35.649 132.128 35.089V25.87H129.335C128.761 25.87 128.306 25.716 127.97 25.408C127.648 25.086 127.487 24.673 127.487 24.169C127.487 23.637 127.648 23.231 127.97 22.951C128.292 22.657 128.747 22.51 129.335 22.51Z" fill="white"/>
<path d="M40.1562 22.0731L32.0617 37.9898L33.0237 38.4789L41.1179 22.5623L40.1562 22.0731ZM34.8813 26.3633C34.8813 24.5785 33.4291 23.1261 31.644 23.1261C29.8591 23.1261 28.4066 24.5782 28.4066 26.3633C28.4066 28.1482 29.8591 29.6006 31.644 29.6006C33.4291 29.6006 34.8813 28.1485 34.8813 26.3633ZM31.644 28.5215C30.4539 28.5215 29.4857 27.5533 29.4857 26.3633C29.4857 25.1733 30.4539 24.2051 31.644 24.2051C32.834 24.2051 33.8022 25.1733 33.8022 26.3633C33.8022 27.5533 32.834 28.5215 31.644 28.5215ZM41.3563 31.7588C39.5711 31.7588 38.1187 33.211 38.1187 34.9961C38.1187 36.7812 39.5711 38.2334 41.3563 38.2334C43.1415 38.2334 44.5934 36.7812 44.5934 34.9961C44.5934 33.211 43.1415 31.7588 41.3563 31.7588ZM41.3563 37.1543C40.1663 37.1543 39.1981 36.1861 39.1981 34.9961C39.1981 33.8061 40.1663 32.8379 41.3563 32.8379C42.5463 32.8379 43.5146 33.8061 43.5146 34.9961C43.5146 36.1861 42.5463 37.1543 41.3563 37.1543ZM52.7661 33.1014C53.3727 32.3125 54 31.4978 54 30.4999C54 29.502 53.373 28.6869 52.7661 27.8986C52.3579 27.368 51.972 26.8666 51.8439 26.3884C51.7077 25.878 51.7922 25.2314 51.8813 24.5463C52.0072 23.5781 52.1377 22.5772 51.6578 21.7478C51.1698 20.9052 50.2299 20.5163 49.3203 20.1406C48.6897 19.88 48.0935 19.6337 47.7305 19.2705C47.3675 18.9072 47.1212 18.3113 46.8604 17.6804C46.484 16.7711 46.0954 15.8304 45.2526 15.3429C44.8572 15.114 44.3778 15.0029 43.7873 15.0029C43.3483 15.0029 42.8938 15.0623 42.4545 15.1192C42.0267 15.1748 41.6231 15.2274 41.2473 15.2274C40.9993 15.2274 40.7917 15.204 40.6124 15.156C40.1333 15.0282 39.6319 14.6423 39.1013 14.2339C38.3132 13.6273 37.4982 13 36.5003 13C35.5021 13 34.687 13.627 33.8987 14.2339C33.3681 14.6423 32.8667 15.0282 32.3884 15.156C32.2089 15.2042 32.0015 15.2274 31.7535 15.2274C31.3777 15.2274 30.9739 15.1751 30.5463 15.1192C30.1068 15.062 29.6522 15.0029 29.2132 15.0029C28.6227 15.0029 28.1434 15.114 27.748 15.3427C26.9051 15.8302 26.5165 16.7708 26.1404 17.6802C25.8799 18.3107 25.6336 18.9067 25.2703 19.2699C24.9071 19.6332 24.3111 19.8795 23.6803 20.1403C22.7707 20.5161 21.8302 20.9049 21.3427 21.7478C20.8628 22.5772 20.9931 23.5781 21.119 24.546C21.2084 25.2308 21.2923 25.8777 21.1561 26.3881C21.0283 26.8664 20.6424 27.3678 20.2339 27.8986C19.6273 28.6867 19 29.502 19 30.4999C19 31.4978 19.6273 32.3125 20.2339 33.1011C20.6424 33.6314 21.0283 34.1331 21.1561 34.6119C21.2923 35.1217 21.2084 35.7689 21.119 36.4537C20.9931 37.4216 20.8628 38.4228 21.3427 39.252C21.8302 40.0945 22.7707 40.4837 23.68 40.8592C24.3109 41.12 24.9071 41.3663 25.2703 41.7298C25.6336 42.0928 25.8797 42.689 26.1404 43.3196C26.5162 44.2292 26.9048 45.1693 27.7477 45.6571C28.1431 45.886 28.6224 45.9971 29.2129 45.9971C29.6522 45.9971 30.1065 45.9375 30.546 45.8805C30.9739 45.8246 31.378 45.7723 31.7535 45.7723C32.0015 45.7723 32.2089 45.7958 32.3884 45.8434C32.8667 45.9718 33.3678 46.3577 33.8987 46.7659C34.687 47.3727 35.5021 48 36.5003 48C37.4985 48 38.3132 47.3724 39.1013 46.7659C39.6319 46.3577 40.1333 45.9718 40.6118 45.844C40.7911 45.7958 40.9993 45.7726 41.2473 45.7726C41.6225 45.7726 42.0264 45.8246 42.454 45.8805C42.8935 45.938 43.3481 45.9971 43.7868 45.9971C44.3776 45.9971 44.8572 45.886 45.252 45.6571C46.0952 45.1696 46.4838 44.2292 46.8598 43.3196C47.1206 42.689 47.367 42.0928 47.7299 41.7298C48.0935 41.3668 48.6894 41.1205 49.3203 40.8597C50.2299 40.4839 51.1698 40.0951 51.6578 39.2528C52.1374 38.4233 52.0069 37.4221 51.881 36.454C51.7922 35.7689 51.7071 35.1217 51.8434 34.6113C51.972 34.1331 52.3576 33.632 52.7661 33.1014ZM50.8022 34.3331C50.6109 35.0495 50.713 35.8346 50.8114 36.5935C50.9193 37.4192 51.0207 38.1993 50.7245 38.7119C50.4204 39.2375 49.6857 39.5408 48.9088 39.8624C48.2079 40.152 47.483 40.4515 46.9677 40.9671C46.4522 41.4826 46.1529 42.2072 45.8627 42.9078C45.5412 43.685 45.2379 44.4196 44.7119 44.7232C44.4819 44.8562 44.1882 44.9183 43.7865 44.9183C43.4175 44.9183 43.0178 44.866 42.5932 44.8109C42.1504 44.7529 41.6929 44.6935 41.2476 44.6935C40.9042 44.6935 40.605 44.7289 40.3336 44.8014C39.6463 44.9851 39.0346 45.4557 38.4432 45.9108C37.768 46.4301 37.1308 46.9206 36.5003 46.9206C35.8694 46.9206 35.2318 46.4301 34.5568 45.9108C33.9654 45.4554 33.3537 44.9851 32.6669 44.8014C32.3953 44.7284 32.0966 44.6935 31.7532 44.6935C31.3074 44.6935 30.8493 44.7532 30.4062 44.8107C29.9822 44.8663 29.5816 44.9183 29.2127 44.9183C28.8113 44.9183 28.5175 44.8565 28.2878 44.7235C27.7619 44.4194 27.4586 43.6853 27.1373 42.9081C26.8476 42.2075 26.5481 41.4829 26.0328 40.9671C25.5172 40.4518 24.7926 40.1523 24.0918 39.8621C23.3146 39.5411 22.5804 39.2378 22.2761 38.7116C21.9796 38.199 22.0809 37.4189 22.1886 36.5932C22.2878 35.8348 22.3897 35.0503 22.1981 34.3334C22.0145 33.6459 21.5438 33.0344 21.0888 32.4431C20.5691 31.7681 20.0786 31.1307 20.0786 30.4999C20.0786 29.869 20.5694 29.2317 21.0888 28.5567C21.5438 27.9651 22.0145 27.3536 22.1981 26.6666C22.3897 25.95 22.2878 25.1652 22.1889 24.4065C22.0812 23.5806 21.9798 22.8007 22.2763 22.2878C22.5807 21.7622 23.3148 21.4586 24.092 21.1374C24.7926 20.8477 25.5175 20.5482 26.0328 20.0326C26.5481 19.5174 26.8476 18.7928 27.1373 18.0919C27.4586 17.3147 27.7619 16.5804 28.2878 16.2763C28.5178 16.1433 28.8115 16.0814 29.2129 16.0814C29.5822 16.0814 29.9825 16.1335 30.4065 16.1888C30.8493 16.2465 31.3074 16.3062 31.753 16.3062C32.0963 16.3062 32.395 16.2711 32.6667 16.1983C33.3537 16.0147 33.9652 15.544 34.5565 15.089C35.2318 14.5696 35.8694 14.0788 36.5 14.0788C37.1308 14.0788 37.7682 14.5696 38.4432 15.089C39.0346 15.544 39.6466 16.0147 40.3336 16.1983C40.6056 16.2711 40.9045 16.3062 41.2476 16.3062C41.6926 16.3062 42.1509 16.2465 42.5938 16.1891C43.0178 16.1337 43.4178 16.0817 43.7871 16.0817C44.1887 16.0817 44.4825 16.1435 44.7119 16.2765C45.2381 16.5809 45.5417 17.315 45.8633 18.0925C46.1529 18.7933 46.4524 19.5179 46.9677 20.0332C47.4836 20.5485 48.2079 20.848 48.9088 21.1376C49.686 21.4589 50.4198 21.7625 50.7242 22.2881C51.0207 22.8007 50.9196 23.5809 50.812 24.4068C50.713 25.1657 50.6109 25.9505 50.8024 26.6669C50.9861 27.3539 51.4564 27.9654 51.9115 28.5567C52.4309 29.2317 52.9217 29.869 52.9217 30.4999C52.9217 31.1304 52.4309 31.7681 51.9115 32.4433C51.4564 33.0344 50.9861 33.6461 50.8022 34.3331Z" fill="white"/>
<defs>
<filter id="filter0_d" x="0" y="0" width="174" height="64" filterUnits="userSpaceOnUse" color-interpolation-filters="sRGB">
<feFlood flood-opacity="0" result="BackgroundImageFix"/>
<feColorMatrix in="SourceAlpha" type="matrix" values="0 0 0 0 0 0 0 0 0 0 0 0 0 0 0 0 0 0 127 0"/>
<feOffset dx="2" dy="2"/>
<feGaussianBlur stdDeviation="1.5"/>
<feColorMatrix type="matrix" values="0 0 0 0 0 0 0 0 0 0 0 0 0 0 0 0 0 0 0.25 0"/>
<feBlend mode="normal" in2="BackgroundImageFix" result="effect1_dropShadow"/>
<feBlend mode="normal" in="SourceGraphic" in2="effect1_dropShadow" result="shape"/>
</filter>
</defs>
</svg>
